<svg width="17" height="17" viewBox="0 0 17 17" fill="none" xmlns="http://www.w3.org/2000/svg">
<path fill-rule="evenodd" clip-rule="evenodd" d="M14.1631 4.36328C14.2851 4.48524 14.3536 4.65064 14.3536 4.8231C14.3536 4.99556 14.2851 5.16096 14.1631 5.28293L7.00884 12.4372C6.88687 12.5592 6.72147 12.6277 6.54901 12.6277C6.37655 12.6277 6.21115 12.5592 6.08919 12.4372L2.83723 9.18528C2.77511 9.12528 2.72556 9.05352 2.69148 8.97417C2.65739 8.89482 2.63945 8.80947 2.6387 8.72311C2.63795 8.63675 2.6544 8.55111 2.6871 8.47118C2.71981 8.39125 2.7681 8.31863 2.82917 8.25757C2.89023 8.1965 2.96285 8.1482 3.04278 8.1155C3.12271 8.0828 3.20836 8.06634 3.29472 8.06709C3.38107 8.06784 3.46642 8.08579 3.54577 8.11987C3.62512 8.15396 3.69689 8.20351 3.75688 8.26563L6.54901 11.0578L13.2435 4.36328C13.3655 4.24135 13.5309 4.17285 13.7033 4.17285C13.8758 4.17285 14.0412 4.24135 14.1631 4.36328Z" fill="#111019"/>
</svg>
