<svg width="22" height="22" viewBox="0 0 22 22" fill="none" xmlns="http://www.w3.org/2000/svg">
<path fill-rule="evenodd" clip-rule="evenodd" d="M11.2003 3.14746C9.08556 3.14746 8.82083 3.15629 7.9903 3.19418C7.16132 3.23207 6.595 3.36392 6.0998 3.5565C5.58071 3.75167 5.10991 4.05793 4.72059 4.45451C4.32465 4.84337 4.0182 5.31385 3.82258 5.8332C3.63104 6.3284 3.49867 6.89524 3.46078 7.72422C3.42341 8.55423 3.41406 8.81844 3.41406 10.9337C3.41406 13.049 3.42289 13.3132 3.46078 14.1437C3.49867 14.9727 3.63052 15.539 3.8231 16.0342C4.01828 16.5533 4.32453 17.0241 4.72111 17.4134C5.10999 17.8094 5.58046 18.1158 6.0998 18.3114C6.595 18.5035 7.16132 18.6353 7.9903 18.6732C8.82083 18.7111 9.08556 18.7199 11.2003 18.7199C13.3151 18.7199 13.5798 18.7111 14.4103 18.6732C15.2393 18.6353 15.8056 18.5035 16.3008 18.3109C16.8199 18.1157 17.2907 17.8095 17.68 17.4129C18.076 17.024 18.3824 16.5536 18.578 16.0342C18.7701 15.539 18.9019 14.9727 18.9398 14.1437C18.9777 13.3132 18.9866 13.0484 18.9866 10.9337C18.9866 8.81896 18.9777 8.55423 18.9398 7.7237C18.9019 6.89472 18.7701 6.3284 18.5775 5.8332C18.382 5.31363 18.0756 4.84295 17.6795 4.45399C17.2906 4.05805 16.8202 3.7516 16.3008 3.55598C15.8056 3.36444 15.2388 3.23207 14.4098 3.19418C13.5798 3.1568 13.3156 3.14746 11.2003 3.14746ZM11.2003 4.55054C13.2792 4.55054 13.5258 4.55833 14.347 4.5957C15.1059 4.63048 15.518 4.75662 15.7926 4.86407C16.156 5.00474 16.4155 5.17396 16.6881 5.44596C16.9606 5.71848 17.1293 5.97802 17.2699 6.34138C17.3769 6.61597 17.5035 7.02813 17.5383 7.78702C17.5757 8.60821 17.5835 8.85478 17.5835 10.9337C17.5835 13.0126 17.5757 13.2592 17.5383 14.0804C17.5035 14.8393 17.3774 15.2514 17.2699 15.526C17.1453 15.8642 16.9465 16.1702 16.6881 16.4215C16.4369 16.6799 16.1309 16.8788 15.7926 17.0033C15.518 17.1103 15.1059 17.2369 14.347 17.2717C13.5258 17.3091 13.2798 17.3169 11.2003 17.3169C9.12086 17.3169 8.87481 17.3091 8.05363 17.2717C7.29473 17.2369 6.88257 17.1108 6.60798 17.0033C6.26977 16.8787 5.9638 16.6799 5.71256 16.4215C5.45415 16.1702 5.25532 15.8642 5.13067 15.526C5.02374 15.2514 4.89708 14.8393 4.8623 14.0804C4.82493 13.2592 4.81714 13.0126 4.81714 10.9337C4.81714 8.85478 4.82493 8.60821 4.8623 7.78702C4.89708 7.02813 5.02322 6.61597 5.13067 6.34138C5.27134 5.97802 5.44056 5.71848 5.71256 5.44596C5.96377 5.18748 6.26975 4.98864 6.60798 4.86407C6.88257 4.75714 7.29473 4.63048 8.05363 4.5957C8.87481 4.55833 9.12138 4.55054 11.2003 4.55054Z" fill="#3081D4"/>
<path fill-rule="evenodd" clip-rule="evenodd" d="M11.2004 13.531C10.8592 13.531 10.5214 13.4638 10.2062 13.3332C9.89095 13.2026 9.60455 13.0113 9.3633 12.77C9.12205 12.5288 8.93069 12.2424 8.80012 11.9272C8.66956 11.612 8.60236 11.2741 8.60236 10.9329C8.60236 10.5918 8.66956 10.2539 8.80012 9.93872C8.93069 9.62352 9.12205 9.33712 9.3633 9.09587C9.60455 8.85462 9.89095 8.66325 10.2062 8.53269C10.5214 8.40213 10.8592 8.33493 11.2004 8.33493C11.8894 8.33493 12.5502 8.60865 13.0374 9.09587C13.5247 9.58309 13.7984 10.2439 13.7984 10.9329C13.7984 11.622 13.5247 12.2828 13.0374 12.77C12.5502 13.2572 11.8894 13.531 11.2004 13.531ZM11.2004 6.93081C10.1389 6.93081 9.12098 7.35246 8.37044 8.10301C7.61989 8.85355 7.19824 9.87151 7.19824 10.9329C7.19824 11.9944 7.61989 13.0123 8.37044 13.7629C9.12098 14.5134 10.1389 14.9351 11.2004 14.9351C12.2618 14.9351 13.2798 14.5134 14.0303 13.7629C14.7808 13.0123 15.2025 11.9944 15.2025 10.9329C15.2025 9.87151 14.7808 8.85355 14.0303 8.10301C13.2798 7.35246 12.2618 6.93081 11.2004 6.93081ZM16.3668 6.85814C16.3668 7.10904 16.2671 7.34967 16.0897 7.52708C15.9123 7.7045 15.6717 7.80417 15.4208 7.80417C15.1699 7.80417 14.9292 7.7045 14.7518 7.52708C14.5744 7.34967 14.4747 7.10904 14.4747 6.85814C14.4747 6.60724 14.5744 6.36661 14.7518 6.18919C14.9292 6.01178 15.1699 5.91211 15.4208 5.91211C15.6717 5.91211 15.9123 6.01178 16.0897 6.18919C16.2671 6.36661 16.3668 6.60724 16.3668 6.85814Z" fill="#3081D4"/>
</svg>
