<svg width="22" height="22" viewBox="0 0 22 22" fill="none" xmlns="http://www.w3.org/2000/svg">
<path fill-rule="evenodd" clip-rule="evenodd" d="M11 3.5282C8.86115 3.5282 8.5934 3.53712 7.7534 3.57545C6.91497 3.61377 6.3422 3.74712 5.84135 3.9419C5.31635 4.1393 4.84017 4.44905 4.44642 4.85015C4.04597 5.24344 3.73603 5.71928 3.53817 6.24455C3.34445 6.7454 3.21057 7.3187 3.17225 8.15712C3.13445 8.9966 3.125 9.26382 3.125 11.4032C3.125 13.5426 3.13393 13.8098 3.17225 14.6498C3.21057 15.4882 3.34392 16.061 3.5387 16.5618C3.7361 17.0868 4.04585 17.563 4.44695 17.9568C4.84026 18.3572 5.31609 18.6672 5.84135 18.865C6.3422 19.0593 6.91497 19.1926 7.7534 19.2309C8.5934 19.2693 8.86115 19.2782 11 19.2782C13.1388 19.2782 13.4066 19.2693 14.2466 19.2309C15.085 19.1926 15.6578 19.0593 16.1586 18.8645C16.6836 18.6671 17.1598 18.3573 17.5536 17.9562C17.954 17.563 18.264 17.0871 18.4618 16.5618C18.6561 16.061 18.7894 15.4882 18.8277 14.6498C18.8661 13.8098 18.875 13.542 18.875 11.4032C18.875 9.26435 18.8661 8.9966 18.8277 8.1566C18.7894 7.31817 18.6561 6.7454 18.4613 6.24455C18.2636 5.71906 17.9536 5.24302 17.553 4.84962C17.1598 4.44916 16.6839 4.13922 16.1586 3.94137C15.6578 3.74765 15.0845 3.61377 14.2461 3.57545C13.4066 3.53765 13.1394 3.5282 11 3.5282ZM11 4.94727C13.1026 4.94727 13.352 4.95515 14.1825 4.99295C14.9501 5.02812 15.3669 5.1557 15.6447 5.26437C16.0122 5.40665 16.2747 5.5778 16.5503 5.8529C16.8259 6.12852 16.9965 6.39102 17.1388 6.75852C17.247 7.03625 17.3751 7.4531 17.4102 8.22065C17.448 9.0512 17.4559 9.30057 17.4559 11.4032C17.4559 13.5058 17.448 13.7552 17.4102 14.5857C17.3751 15.3533 17.2475 15.7701 17.1388 16.0479C17.0128 16.3899 16.8117 16.6994 16.5503 16.9535C16.2962 17.2149 15.9868 17.4161 15.6447 17.542C15.3669 17.6502 14.9501 17.7783 14.1825 17.8134C13.352 17.8512 13.1031 17.8591 11 17.8591C8.89685 17.8591 8.648 17.8512 7.81745 17.8134C7.0499 17.7783 6.63305 17.6507 6.35532 17.542C6.01326 17.416 5.7038 17.2149 5.4497 16.9535C5.18834 16.6994 4.98724 16.3899 4.86117 16.0479C4.75302 15.7701 4.62492 15.3533 4.58975 14.5857C4.55195 13.7552 4.54408 13.5058 4.54408 11.4032C4.54408 9.30057 4.55195 9.0512 4.58975 8.22065C4.62492 7.4531 4.7525 7.03625 4.86117 6.75852C5.00345 6.39102 5.1746 6.12852 5.4497 5.8529C5.70377 5.59147 6.01324 5.39036 6.35532 5.26437C6.63305 5.15622 7.0499 5.02812 7.81745 4.99295C8.648 4.95515 8.89737 4.94727 11 4.94727Z" fill="white"/>
<path fill-rule="evenodd" clip-rule="evenodd" d="M10.9999 14.0309C10.6548 14.0309 10.3131 13.9629 9.99435 13.8309C9.67555 13.6988 9.38588 13.5053 9.14189 13.2613C8.89789 13.0173 8.70434 12.7276 8.57229 12.4088C8.44024 12.09 8.37227 11.7483 8.37227 11.4033C8.37227 11.0582 8.44024 10.7165 8.57229 10.3977C8.70434 10.0789 8.89789 9.78924 9.14189 9.54525C9.38588 9.30125 9.67555 9.1077 9.99435 8.97565C10.3131 8.8436 10.6548 8.77563 10.9999 8.77563C11.6968 8.77563 12.3651 9.05247 12.8579 9.54525C13.3507 10.038 13.6275 10.7064 13.6275 11.4033C13.6275 12.1001 13.3507 12.7685 12.8579 13.2613C12.3651 13.754 11.6968 14.0309 10.9999 14.0309ZM10.9999 7.35551C9.92637 7.35551 8.89681 7.78197 8.13771 8.54107C7.37861 9.30017 6.95215 10.3297 6.95215 11.4033C6.95215 12.4768 7.37861 13.5064 8.13771 14.2655C8.89681 15.0246 9.92637 15.451 10.9999 15.451C12.0734 15.451 13.103 15.0246 13.8621 14.2655C14.6212 13.5064 15.0476 12.4768 15.0476 11.4033C15.0476 10.3297 14.6212 9.30017 13.8621 8.54107C13.103 7.78197 12.0734 7.35551 10.9999 7.35551ZM16.2252 7.28201C16.2252 7.53577 16.1244 7.77914 15.945 7.95858C15.7655 8.13801 15.5222 8.23882 15.2684 8.23882C15.0146 8.23882 14.7713 8.13801 14.5918 7.95858C14.4124 7.77914 14.3116 7.53577 14.3116 7.28201C14.3116 7.02825 14.4124 6.78488 14.5918 6.60544C14.7713 6.426 15.0146 6.3252 15.2684 6.3252C15.5222 6.3252 15.7655 6.426 15.945 6.60544C16.1244 6.78488 16.2252 7.02825 16.2252 7.28201Z" fill="white"/>
</svg>
