<svg width="18" height="19" viewBox="0 0 18 19" fill="none" xmlns="http://www.w3.org/2000/svg">
<path fill-rule="evenodd" clip-rule="evenodd" d="M14.844 4.4642C15.4891 4.6375 15.9994 5.14777 16.1727 5.79282C16.4904 6.96741 16.5 9.40322 16.5 9.40322C16.5 9.40322 16.5 11.8487 16.1823 13.0136C16.009 13.6587 15.4987 14.1689 14.8537 14.3422C13.6887 14.66 9 14.66 9 14.66C9 14.66 4.3113 14.66 3.14634 14.3422C2.50128 14.1689 1.99101 13.6587 1.81772 13.0136C1.5 11.839 1.5 9.40322 1.5 9.40322C1.5 9.40322 1.5 6.96741 1.80809 5.80245C1.98139 5.1574 2.49166 4.64713 3.13671 4.47383C4.30167 4.15611 8.99037 4.14648 8.99037 4.14648C8.99037 4.14648 13.6791 4.14648 14.844 4.4642ZM11.3877 9.40323L7.49807 11.6561V7.15034L11.3877 9.40323Z" fill="white"/>
</svg>
