<svg width="19" height="18" viewBox="0 0 19 18" fill="none" xmlns="http://www.w3.org/2000/svg">
<path fill-rule="evenodd" clip-rule="evenodd" d="M15.0843 4.04948C15.7221 4.22083 16.2266 4.72535 16.3979 5.36314C16.712 6.52448 16.7216 8.93284 16.7216 8.93284C16.7216 8.93284 16.7216 11.3507 16.4074 12.5025C16.2361 13.1403 15.7316 13.6449 15.0938 13.8162C13.942 14.1303 9.3061 14.1303 9.3061 14.1303C9.3061 14.1303 4.67024 14.1303 3.51841 13.8162C2.88062 13.6449 2.37611 13.1403 2.20476 12.5025C1.89062 11.3412 1.89062 8.93284 1.89062 8.93284C1.89062 8.93284 1.89062 6.52448 2.19524 5.37266C2.36659 4.73487 2.8711 4.23035 3.50889 4.05901C4.66072 3.74487 9.29658 3.73535 9.29658 3.73535C9.29658 3.73535 13.9324 3.73535 15.0843 4.04948ZM11.6669 8.93285L7.8211 11.1603V6.70535L11.6669 8.93285Z" fill="#3081D4"/>
</svg>
