<svg width="162" height="31" viewBox="0 0 162 31" fill="none" xmlns="http://www.w3.org/2000/svg">
<path d="M7.1378 28.5028C3.50887 26.1206 1.1485 22.8597 0.316538 18.6163C-0.591266 13.9859 0.45976 9.76926 3.38962 6.05717C5.64478 3.19993 8.59104 1.37311 12.1415 0.659639C18.0215 -0.521945 23.0115 1.20328 26.9312 5.71541C33.1687 12.8957 31.2349 24.0959 22.9995 28.8412C21.5422 29.6809 20.0085 30.4089 18.3055 30.5261C16.2778 30.6656 14.2326 30.838 12.2112 30.5282C10.3893 30.2489 8.72692 29.4831 7.1378 28.5028ZM9.11623 3.91622C9.06221 3.94676 9.00754 3.97622 8.95425 4.00799C3.98908 6.96772 1.63059 11.3653 2.19019 17.0904C2.64808 21.7748 5.1989 25.2149 9.37842 27.414C9.62359 27.543 9.88483 27.6415 10.1807 27.7728C10.1807 19.6247 10.1807 11.5546 10.1807 3.4091C9.80745 3.58658 9.48668 3.73911 9.11623 3.91622ZM20.467 5.0007C20.467 12.5848 20.467 20.1688 20.467 27.7847C25.3824 25.627 29.1276 20.6376 28.4901 14.2891C27.9226 8.63733 23.8949 4.62784 20.467 3.47314C20.467 3.96695 20.467 4.44658 20.467 5.0007ZM13.0686 17.2206C13.0686 12.3459 13.0686 7.47126 13.0686 2.53913C12.7636 2.59869 12.5133 2.67591 12.2595 2.69066C11.8545 2.71418 11.7729 2.91122 11.7736 3.2915C11.7894 11.4995 11.7912 19.7074 11.796 27.9154C11.796 28.0147 11.7869 28.1165 11.8061 28.2123C11.819 28.2767 11.8629 28.3709 11.9129 28.3861C12.2726 28.4953 12.6374 28.5876 13.0686 28.7037C13.0686 24.8388 13.0686 21.0669 13.0686 17.2206ZM15.9939 22.8089C15.9939 16.2438 15.9939 9.67864 15.9939 3.11351C15.9939 2.32124 15.9938 2.32124 15.1893 2.32133C14.7138 2.32139 14.7137 2.32139 14.7137 2.80813C14.7137 11.1852 14.7137 19.5622 14.7138 27.9393C14.7138 28.8468 14.7138 28.8337 15.6083 28.8408C15.926 28.8433 16.0021 28.7325 16.0001 28.4308C15.9877 26.5818 15.9939 24.7326 15.9939 22.8089ZM18.3805 2.69955C18.1225 2.64545 17.8645 2.59135 17.5981 2.53548C17.5981 11.2892 17.5981 19.9683 17.5981 28.6911C17.904 28.6234 18.1652 28.5422 18.4322 28.5125C18.7335 28.479 18.808 28.3362 18.8078 28.0471C18.8009 19.7424 18.801 11.4377 18.8088 3.13302C18.8091 2.84796 18.7261 2.71214 18.3805 2.69955Z" fill="#151616"/>
<path d="M139.671 20.4482C139.451 23.0118 138.589 25.2429 136.634 26.9517C135.32 28.1007 133.76 28.7403 132.059 29.0619C129.276 29.5883 126.628 29.1907 124.208 27.7229C121.914 26.3319 120.651 24.1877 120.251 21.5692C119.792 18.5701 120.468 15.8234 122.471 13.5082C124.015 11.7223 126.025 10.7246 128.382 10.4609C130.496 10.2244 132.357 10.7982 133.95 12.217C133.983 12.2463 134.027 12.2631 134.136 12.3271C134.136 12.1266 134.136 11.9856 134.136 11.8447C134.136 9.11361 134.143 6.38251 134.129 3.65152C134.127 3.2861 134.208 3.15705 134.599 3.16284C136.151 3.1858 137.703 3.18141 139.254 3.16624C139.599 3.16287 139.727 3.24418 139.726 3.61857C139.715 8.80757 139.721 13.9966 139.718 19.1856C139.718 19.5948 139.689 20.004 139.671 20.4482ZM133.973 18.2558C133.478 16.7766 132.456 15.8968 130.922 15.6563C130.412 15.5765 129.883 15.6101 129.362 15.6134C127.707 15.6237 126.207 16.7381 125.857 18.3552C125.687 19.14 125.673 19.9867 125.747 20.7907C125.91 22.5579 127.262 23.8715 129.023 24.0651C129.514 24.1191 130.014 24.0991 130.51 24.0896C132.213 24.057 133.71 22.8349 134.032 21.1584C134.213 20.2171 134.208 19.2592 133.973 18.2558Z" fill="#121313"/>
<path d="M106.347 21.7672C106.89 23.0164 107.89 23.6305 109.199 23.7965C111.663 24.1093 114.099 23.8966 116.519 23.3897C116.636 23.3652 116.757 23.3611 116.907 23.3441C116.917 23.4884 116.931 23.5959 116.932 23.7035C116.934 25.1683 116.933 26.6331 116.939 28.0979C116.94 28.3135 116.924 28.4643 116.66 28.5324C113.814 29.2644 110.94 29.5394 108.033 29.0028C105.871 28.6038 103.936 27.7367 102.471 26.0194C101.277 24.6194 100.698 22.9588 100.493 21.162C100.225 18.8074 100.633 16.582 101.933 14.5692C103.167 12.6588 104.935 11.4518 107.107 10.8594C110.139 10.0327 113.059 10.3569 115.81 11.9002C118.475 13.3954 119.196 17.2117 117.307 19.6535C116.186 21.1028 114.627 21.7864 112.903 22.1492C110.717 22.6093 108.561 22.441 106.417 21.6985C106.372 21.7133 106.36 21.7402 106.347 21.7672ZM110.032 15.8098C108.596 15.874 107.345 16.2946 106.523 17.6122C106.598 17.6485 106.639 17.6764 106.684 17.6887C107.862 18.0103 109.065 18.2047 110.281 18.1608C110.923 18.1376 111.567 17.9483 112.192 17.7704C112.529 17.6745 112.804 17.4114 112.809 17.0111C112.813 16.6184 112.595 16.3305 112.269 16.1363C112.102 16.0365 111.912 15.9379 111.724 15.9172C111.186 15.858 110.643 15.8388 110.032 15.8098Z" fill="#131313"/>
<path d="M70.1548 21.8247C69.7189 18.9087 70.1389 16.2188 72.0129 13.8843C73.2758 12.311 74.9343 11.3283 76.8684 10.8103C79.6979 10.0523 82.4305 10.306 85.0082 11.7287C87.4445 13.0733 88.8736 15.1613 89.371 17.8904C89.6601 19.4764 89.6324 21.0584 89.1944 22.6139C88.4199 25.3641 86.6826 27.2982 84.0575 28.379C80.891 29.6827 77.725 29.6204 74.665 28.0339C72.1578 26.734 70.6797 24.6316 70.1548 21.8247ZM76.0623 17.5258C75.4968 18.476 75.526 19.523 75.5929 20.5667C75.7074 22.3515 77.0044 23.7706 78.7743 24.0388C79.2365 24.1088 79.7143 24.0892 80.1849 24.0882C82.2714 24.0839 83.9272 22.4753 83.9926 20.392C84.0043 20.0201 84.0032 19.6471 83.99 19.2752C83.9308 17.6074 82.8278 16.1753 81.21 15.7694C80.6429 15.6272 80.032 15.6248 79.4407 15.6212C77.9852 15.6124 76.8661 16.2445 76.0623 17.5258Z" fill="#121313"/>
<path d="M156.416 12.1909C156.416 11.6592 156.416 11.1648 156.416 10.6374C158.272 10.6374 160.1 10.6374 161.97 10.6374C161.979 10.763 161.995 10.8933 161.995 11.0235C161.997 13.8043 162.004 16.5851 161.996 19.3658C161.991 21.2668 161.664 23.1 160.725 24.7803C159.443 27.0751 157.425 28.3649 154.913 28.9357C152.886 29.3964 150.859 29.3886 148.904 28.625C145.829 27.4247 143.97 25.1637 143.34 21.9306C143.185 21.1338 143.166 20.3027 143.157 19.4866C143.125 16.6565 143.129 13.826 143.107 10.9958C143.105 10.6908 143.187 10.5938 143.502 10.5968C145.103 10.6123 146.704 10.6037 148.306 10.6046C148.416 10.6047 148.526 10.6138 148.686 10.621C148.686 10.7854 148.686 10.9305 148.686 11.0757C148.685 13.7074 148.668 16.3394 148.694 18.9709C148.702 19.7478 148.754 20.5396 148.916 21.2966C149.316 23.1629 150.96 24.2827 152.7 24.143C154.791 23.9752 156.302 22.55 156.353 20.6065C156.427 17.8151 156.4 15.0211 156.416 12.1909Z" fill="#121313"/>
<path d="M46.1984 13.879C47.3762 16.9324 48.5435 19.9589 49.7109 22.9854C49.7428 22.9839 49.7747 22.9824 49.8065 22.9808C49.8595 22.8629 49.9181 22.7471 49.9646 22.6267C51.4616 18.7477 52.9606 14.8695 54.4474 10.9866C54.5563 10.7021 54.6853 10.5914 55.0038 10.5953C56.5558 10.6145 58.1081 10.604 59.6603 10.604C59.7939 10.604 59.9276 10.604 60.121 10.604C60.0597 10.7708 60.0223 10.884 59.9772 10.9939C57.5465 16.9212 55.1134 22.8475 52.6901 28.7778C52.5832 29.0394 52.4498 29.1242 52.1716 29.1219C50.5574 29.1087 48.943 29.1084 47.3288 29.1224C47.0569 29.1247 46.9399 29.0276 46.8414 28.7867C44.4128 22.8479 41.9767 16.9122 39.5428 10.9755C39.5016 10.8749 39.472 10.7695 39.4238 10.6275C39.5677 10.618 39.6742 10.605 39.7808 10.6049C41.3826 10.6036 42.9846 10.6106 44.5863 10.5973C44.8553 10.5951 44.9763 10.6818 45.0682 10.9315C45.4286 11.9098 45.8127 12.8794 46.1984 13.879Z" fill="#121313"/>
<path d="M97.5768 15.7676C97.5768 20.222 97.5768 24.6392 97.5768 29.0889C95.7268 29.0889 93.9109 29.0889 92.0684 29.0889C92.0684 20.4646 92.0684 11.8436 92.0684 3.19582C92.1925 3.1877 92.3001 3.17462 92.4078 3.17451C93.9969 3.17292 95.5861 3.18323 97.1749 3.16465C97.5147 3.16068 97.5849 3.27048 97.5841 3.58879C97.5737 7.63595 97.577 11.6831 97.5768 15.7676Z" fill="#121213"/>
<path d="M64.5108 10.5964C65.4017 10.5964 66.2554 10.5964 67.1558 10.5964C67.1558 10.7708 67.1558 10.9028 67.1558 11.0348C67.156 16.9192 67.1533 22.8036 67.1637 28.688C67.1643 29.0283 67.0786 29.1331 66.7307 29.1292C65.1542 29.1114 63.5774 29.1139 62.0009 29.1283C61.6907 29.1312 61.6021 29.039 61.6025 28.7296C61.6108 22.808 61.6085 16.8863 61.6094 10.9647C61.6094 10.8562 61.6212 10.7477 61.6299 10.5964C62.593 10.5964 63.5332 10.5964 64.5108 10.5964Z" fill="#121313"/>
<path d="M61.233 4.89664C61.7352 3.21307 63.1863 2.2283 64.7872 2.45993C66.4341 2.69821 67.6017 4.01521 67.6123 5.64627C67.6244 7.51953 66.0089 9.02815 64.1443 8.88481C62.2432 8.73867 60.8859 7.02227 61.1888 5.14731C61.2007 5.07379 61.2129 5.00032 61.233 4.89664Z" fill="#131414"/>
<path d="M106.358 21.7555C106.359 21.7396 106.371 21.7131 106.388 21.7044C106.392 21.7222 106.37 21.7449 106.358 21.7555Z" fill="white"/>
<path d="M5.74031 14.5933C6.31627 13.8983 6.80172 13.1925 6.91794 12.2863C7.06266 11.1577 6.80709 10.1419 6.10447 9.25238C5.86797 8.95298 5.85635 8.75411 6.15183 8.47999C6.52983 8.12931 6.85183 7.71826 7.21435 7.315C8.97631 9.35159 9.5246 11.4903 8.56963 13.9456C8.24113 14.7902 7.65468 15.4385 7.12287 16.1356C5.89187 17.7492 5.88303 19.5931 7.10849 21.2098C7.28146 21.438 7.3046 21.6031 7.08465 21.8066C6.67795 22.1828 6.28603 22.5751 5.86714 22.9808C5.13317 22.1696 4.54658 21.2609 4.2877 20.179C3.78474 18.0771 4.35481 16.2392 5.74031 14.5933Z" fill="#151616"/>
<path d="M26.5478 17.9713C26.827 19.9415 26.1199 21.5413 24.832 23.0141C24.3668 22.547 23.9175 22.1098 23.4931 21.6497C23.4471 21.5998 23.5277 21.4088 23.5795 21.2972C23.8489 20.7169 24.2346 20.167 24.3824 19.5586C24.7267 18.1407 24.2597 16.8936 23.32 15.8151C22.1117 14.4281 21.5418 12.823 21.7024 10.9896C21.8236 9.60612 22.4793 8.45516 23.419 7.37677C23.8747 7.83031 24.3242 8.25135 24.7312 8.71002C24.7949 8.78181 24.6917 9.03684 24.6213 9.1862C24.385 9.68708 24.0402 10.1543 23.8973 10.6782C23.5293 12.0274 23.8517 13.2752 24.7563 14.3251C25.6691 15.3846 26.3137 16.5533 26.5478 17.9713Z" fill="#151616"/>
</svg>
