<svg width="162" height="32" viewBox="0 0 162 32" fill="none" xmlns="http://www.w3.org/2000/svg">
<path d="M7.1378 29.0028C3.50887 26.6206 1.1485 23.3597 0.316538 19.1163C-0.591266 14.4859 0.45976 10.2693 3.38962 6.55717C5.64478 3.69993 8.59104 1.87311 12.1415 1.15964C18.0215 -0.0219448 23.0115 1.70328 26.9312 6.21541C33.1687 13.3957 31.2349 24.5959 22.9995 29.3412C21.5422 30.1809 20.0085 30.9089 18.3055 31.0261C16.2778 31.1656 14.2326 31.338 12.2112 31.0282C10.3893 30.7489 8.72692 29.9831 7.1378 29.0028ZM9.11623 4.41622C9.06221 4.44676 9.00754 4.47622 8.95425 4.50799C3.98908 7.46772 1.63059 11.8653 2.19019 17.5904C2.64808 22.2748 5.1989 25.7149 9.37842 27.914C9.62359 28.043 9.88483 28.1415 10.1807 28.2728C10.1807 20.1247 10.1807 12.0546 10.1807 3.9091C9.80745 4.08658 9.48668 4.23911 9.11623 4.41622ZM20.467 5.5007C20.467 13.0848 20.467 20.6688 20.467 28.2847C25.3824 26.127 29.1276 21.1376 28.4901 14.7891C27.9226 9.13733 23.8949 5.12784 20.467 3.97314C20.467 4.46695 20.467 4.94658 20.467 5.5007ZM13.0686 17.7206C13.0686 12.8459 13.0686 7.97126 13.0686 3.03913C12.7636 3.09869 12.5133 3.17591 12.2595 3.19066C11.8545 3.21418 11.7729 3.41122 11.7736 3.7915C11.7894 11.9995 11.7912 20.2074 11.796 28.4154C11.796 28.5147 11.7869 28.6165 11.8061 28.7123C11.819 28.7767 11.8629 28.8709 11.9129 28.8861C12.2726 28.9953 12.6374 29.0876 13.0686 29.2037C13.0686 25.3388 13.0686 21.5669 13.0686 17.7206ZM15.9939 23.3089C15.9939 16.7438 15.9939 10.1786 15.9939 3.61351C15.9939 2.82124 15.9938 2.82124 15.1893 2.82133C14.7138 2.82139 14.7137 2.82139 14.7137 3.30813C14.7137 11.6852 14.7137 20.0622 14.7138 28.4393C14.7138 29.3468 14.7138 29.3337 15.6083 29.3408C15.926 29.3433 16.0021 29.2325 16.0001 28.9308C15.9877 27.0818 15.9939 25.2326 15.9939 23.3089ZM18.3805 3.19955C18.1225 3.14545 17.8645 3.09135 17.5981 3.03548C17.5981 11.7892 17.5981 20.4683 17.5981 29.1911C17.904 29.1234 18.1652 29.0422 18.4322 29.0125C18.7335 28.979 18.808 28.8362 18.8078 28.5471C18.8009 20.2424 18.801 11.9377 18.8088 3.63302C18.8091 3.34796 18.7261 3.21214 18.3805 3.19955Z" fill="#151616"/>
<path d="M139.671 20.9482C139.451 23.5118 138.589 25.7429 136.634 27.4517C135.32 28.6007 133.76 29.2403 132.059 29.5619C129.276 30.0883 126.628 29.6907 124.208 28.2229C121.914 26.8319 120.651 24.6877 120.251 22.0692C119.792 19.0701 120.468 16.3234 122.471 14.0082C124.015 12.2223 126.025 11.2246 128.382 10.9609C130.496 10.7244 132.357 11.2982 133.95 12.717C133.983 12.7463 134.027 12.7631 134.136 12.8271C134.136 12.6266 134.136 12.4856 134.136 12.3447C134.136 9.61361 134.143 6.88251 134.129 4.15152C134.127 3.7861 134.208 3.65705 134.599 3.66284C136.151 3.6858 137.703 3.68141 139.254 3.66624C139.599 3.66287 139.727 3.74418 139.726 4.11857C139.715 9.30757 139.721 14.4966 139.718 19.6856C139.718 20.0948 139.689 20.504 139.671 20.9482ZM133.973 18.7558C133.478 17.2766 132.456 16.3968 130.922 16.1563C130.412 16.0765 129.883 16.1101 129.362 16.1134C127.707 16.1237 126.207 17.2381 125.857 18.8552C125.687 19.64 125.673 20.4867 125.747 21.2907C125.91 23.0579 127.262 24.3715 129.023 24.5651C129.514 24.6191 130.014 24.5991 130.51 24.5896C132.213 24.557 133.71 23.3349 134.032 21.6584C134.213 20.7171 134.208 19.7592 133.973 18.7558Z" fill="#121313"/>
<path d="M106.347 22.2672C106.889 23.5164 107.889 24.1305 109.198 24.2965C111.662 24.6093 114.099 24.3966 116.518 23.8897C116.635 23.8652 116.757 23.8611 116.907 23.8441C116.917 23.9884 116.931 24.0959 116.931 24.2035C116.934 25.6683 116.932 27.1331 116.938 28.5979C116.939 28.8135 116.924 28.9643 116.659 29.0324C113.814 29.7644 110.94 30.0394 108.032 29.5028C105.871 29.1038 103.935 28.2367 102.471 26.5194C101.277 25.1194 100.698 23.4588 100.493 21.662C100.224 19.3074 100.632 17.082 101.933 15.0692C103.167 13.1588 104.934 11.9518 107.107 11.3594C110.139 10.5327 113.059 10.8569 115.81 12.4002C118.475 13.8954 119.195 17.7117 117.306 20.1535C116.185 21.6028 114.627 22.2864 112.903 22.6492C110.716 23.1093 108.56 22.941 106.416 22.1985C106.372 22.2133 106.359 22.2402 106.347 22.2672ZM110.032 16.3098C108.596 16.374 107.345 16.7946 106.522 18.1122C106.598 18.1485 106.639 18.1764 106.684 18.1887C107.861 18.5103 109.064 18.7047 110.28 18.6608C110.922 18.6376 111.566 18.4483 112.191 18.2704C112.528 18.1745 112.803 17.9114 112.808 17.5111C112.813 17.1184 112.594 16.8305 112.269 16.6363C112.102 16.5365 111.912 16.4379 111.724 16.4172C111.185 16.358 110.642 16.3388 110.032 16.3098Z" fill="#131313"/>
<path d="M70.1553 22.3247C69.7194 19.4087 70.1394 16.7188 72.0134 14.3843C73.2763 12.811 74.9348 11.8283 76.8689 11.3103C79.6984 10.5523 82.431 10.806 85.0087 12.2287C87.445 13.5733 88.874 15.6613 89.3715 18.3904C89.6606 19.9764 89.6329 21.5584 89.1949 23.1139C88.4204 25.8641 86.6831 27.7982 84.058 28.879C80.8915 30.1827 77.7255 30.1204 74.6655 28.5339C72.1583 27.234 70.6802 25.1316 70.1553 22.3247ZM76.0628 18.0258C75.4973 18.976 75.5265 20.023 75.5934 21.0667C75.7078 22.8515 77.0048 24.2706 78.7747 24.5388C79.237 24.6088 79.7148 24.5892 80.1854 24.5882C82.2719 24.5839 83.9277 22.9753 83.9931 20.892C84.0048 20.5201 84.0037 20.1471 83.9905 19.7752C83.9312 18.1074 82.8283 16.6753 81.2105 16.2694C80.6434 16.1272 80.0325 16.1248 79.4412 16.1212C77.9857 16.1124 76.8666 16.7445 76.0628 18.0258Z" fill="#121313"/>
<path d="M156.417 12.6909C156.417 12.1592 156.417 11.6648 156.417 11.1374C158.273 11.1374 160.1 11.1374 161.971 11.1374C161.979 11.263 161.996 11.3933 161.996 11.5235C161.998 14.3043 162.004 17.0851 161.997 19.8658C161.992 21.7668 161.665 23.6 160.726 25.2803C159.444 27.5751 157.426 28.8649 154.914 29.4357C152.887 29.8964 150.86 29.8886 148.904 29.125C145.83 27.9247 143.971 25.6637 143.341 22.4306C143.185 21.6338 143.166 20.8027 143.157 19.9866C143.125 17.1565 143.13 14.326 143.108 11.4958C143.106 11.1908 143.187 11.0938 143.502 11.0968C145.103 11.1123 146.705 11.1037 148.306 11.1046C148.416 11.1047 148.526 11.1138 148.686 11.121C148.686 11.2854 148.686 11.4305 148.686 11.5757C148.686 14.2074 148.669 16.8394 148.695 19.4709C148.702 20.2478 148.755 21.0396 148.917 21.7966C149.316 23.6629 150.961 24.7827 152.701 24.643C154.791 24.4752 156.303 23.05 156.354 21.1065C156.427 18.3151 156.401 15.5211 156.417 12.6909Z" fill="#121313"/>
<path d="M46.1984 14.379C47.3762 17.4324 48.5435 20.4589 49.7109 23.4854C49.7428 23.4839 49.7747 23.4824 49.8065 23.4808C49.8595 23.3629 49.9181 23.2471 49.9646 23.1267C51.4616 19.2477 52.9606 15.3695 54.4474 11.4866C54.5563 11.2021 54.6853 11.0914 55.0038 11.0953C56.5558 11.1145 58.1081 11.104 59.6603 11.104C59.7939 11.104 59.9276 11.104 60.121 11.104C60.0597 11.2708 60.0223 11.384 59.9772 11.4939C57.5465 17.4212 55.1134 23.3475 52.6901 29.2778C52.5832 29.5394 52.4498 29.6242 52.1716 29.6219C50.5574 29.6087 48.943 29.6084 47.3288 29.6224C47.0569 29.6247 46.9399 29.5276 46.8414 29.2867C44.4128 23.3479 41.9767 17.4122 39.5428 11.4755C39.5016 11.3749 39.472 11.2695 39.4238 11.1275C39.5677 11.118 39.6742 11.105 39.7808 11.1049C41.3826 11.1036 42.9846 11.1106 44.5863 11.0973C44.8553 11.0951 44.9763 11.1818 45.0682 11.4315C45.4286 12.4098 45.8127 13.3794 46.1984 14.379Z" fill="#121313"/>
<path d="M97.5773 16.2676C97.5773 20.722 97.5773 25.1392 97.5773 29.5889C95.7273 29.5889 93.9114 29.5889 92.0688 29.5889C92.0688 20.9646 92.0688 12.3436 92.0688 3.69582C92.193 3.6877 92.3006 3.67462 92.4083 3.67451C93.9973 3.67292 95.5866 3.68323 97.1754 3.66465C97.5152 3.66068 97.5854 3.77048 97.5846 4.08879C97.5742 8.13595 97.5775 12.1831 97.5773 16.2676Z" fill="#121213"/>
<path d="M64.5108 11.0964C65.4017 11.0964 66.2554 11.0964 67.1558 11.0964C67.1558 11.2708 67.1558 11.4028 67.1558 11.5348C67.156 17.4192 67.1533 23.3036 67.1637 29.188C67.1643 29.5283 67.0786 29.6331 66.7307 29.6292C65.1542 29.6114 63.5774 29.6139 62.0009 29.6283C61.6907 29.6312 61.6021 29.539 61.6025 29.2296C61.6108 23.308 61.6085 17.3863 61.6094 11.4647C61.6094 11.3562 61.6212 11.2477 61.6299 11.0964C62.593 11.0964 63.5332 11.0964 64.5108 11.0964Z" fill="#121313"/>
<path d="M61.2335 5.39664C61.7357 3.71307 63.1868 2.7283 64.7877 2.95993C66.4345 3.19821 67.6022 4.51521 67.6128 6.14627C67.6249 8.01953 66.0094 9.52815 64.1448 9.38481C62.2437 9.23867 60.8864 7.52227 61.1893 5.64731C61.2012 5.57379 61.2134 5.50032 61.2335 5.39664Z" fill="#131414"/>
<path d="M106.358 22.2555C106.359 22.2396 106.371 22.2131 106.388 22.2044C106.392 22.2222 106.37 22.2449 106.358 22.2555Z" fill="white"/>
<path d="M5.73982 15.0933C6.31578 14.3983 6.80123 13.6925 6.91745 12.7863C7.06218 11.6577 6.8066 10.6419 6.10398 9.75238C5.86748 9.45298 5.85586 9.25411 6.15134 8.97999C6.52934 8.62931 6.85134 8.21826 7.21386 7.815C8.97582 9.85159 9.52411 11.9903 8.56914 14.4456C8.24065 15.2902 7.65419 15.9385 7.12238 16.6356C5.89138 18.2492 5.88254 20.0931 7.108 21.7098C7.28098 21.938 7.30411 22.1031 7.08416 22.3066C6.67746 22.6828 6.28554 23.0751 5.86665 23.4808C5.13268 22.6696 4.54609 21.7609 4.28721 20.679C3.78425 18.5771 4.35432 16.7392 5.73982 15.0933Z" fill="#151616"/>
<path d="M26.5483 18.4713C26.8275 20.4415 26.1204 22.0413 24.8325 23.5141C24.3673 23.047 23.918 22.6098 23.4936 22.1497C23.4476 22.0998 23.5282 21.9088 23.58 21.7972C23.8494 21.2169 24.2351 20.667 24.3829 20.0586C24.7272 18.6407 24.2601 17.3936 23.3205 16.3151C22.1122 14.9281 21.5423 13.323 21.7029 11.4896C21.8241 10.1061 22.4798 8.95516 23.4195 7.87677C23.8752 8.33031 24.3246 8.75135 24.7317 9.21002C24.7954 9.28181 24.6922 9.53684 24.6217 9.6862C24.3855 10.1871 24.0407 10.6543 23.8978 11.1782C23.5298 12.5274 23.8522 13.7752 24.7567 14.8251C25.6696 15.8846 26.3142 17.0533 26.5483 18.4713Z" fill="#151616"/>
</svg>
