<svg width="162" height="31" viewBox="0 0 162 31" fill="none" xmlns="http://www.w3.org/2000/svg">
<path d="M7.1378 28.2044C3.50887 25.8222 1.1485 22.5613 0.316538 18.3179C-0.591266 13.6875 0.45976 9.47086 3.38962 5.75877C5.64478 2.90153 8.59104 1.07471 12.1415 0.361238C18.0215 -0.820346 23.0115 0.90488 26.9312 5.41701C33.1687 12.5973 31.2349 23.7975 22.9995 28.5428C21.5422 29.3825 20.0085 30.1105 18.3055 30.2277C16.2778 30.3672 14.2326 30.5396 12.2112 30.2298C10.3893 29.9505 8.72692 29.1847 7.1378 28.2044ZM9.11623 3.61782C9.06221 3.64836 9.00754 3.67782 8.95425 3.70959C3.98908 6.66932 1.63059 11.0669 2.19019 16.792C2.64808 21.4764 5.1989 24.9165 9.37842 27.1156C9.62359 27.2446 9.88483 27.3431 10.1807 27.4744C10.1807 19.3263 10.1807 11.2562 10.1807 3.1107C9.80745 3.28818 9.48668 3.44071 9.11623 3.61782ZM20.467 4.7023C20.467 12.2864 20.467 19.8704 20.467 27.4863C25.3824 25.3286 29.1276 20.3392 28.4901 13.9907C27.9226 8.33893 23.8949 4.32944 20.467 3.17474C20.467 3.66855 20.467 4.14818 20.467 4.7023ZM13.0686 16.9222C13.0686 12.0475 13.0686 7.17286 13.0686 2.24072C12.7636 2.30029 12.5133 2.37751 12.2595 2.39226C11.8545 2.41578 11.7729 2.61282 11.7736 2.9931C11.7894 11.2011 11.7912 19.409 11.796 27.617C11.796 27.7163 11.7869 27.8181 11.8061 27.9139C11.819 27.9783 11.8629 28.0725 11.9129 28.0877C12.2726 28.1968 12.6374 28.2892 13.0686 28.4053C13.0686 24.5403 13.0686 20.7685 13.0686 16.9222ZM15.9939 22.5105C15.9939 15.9454 15.9939 9.38024 15.9939 2.81511C15.9939 2.02284 15.9938 2.02284 15.1893 2.02293C14.7138 2.02299 14.7137 2.02299 14.7137 2.50973C14.7137 10.8868 14.7137 19.2638 14.7138 27.6409C14.7138 28.5484 14.7138 28.5353 15.6083 28.5424C15.926 28.5449 16.0021 28.4341 16.0001 28.1324C15.9877 26.2834 15.9939 24.4342 15.9939 22.5105ZM18.3805 2.40115C18.1225 2.34705 17.8645 2.29295 17.5981 2.23708C17.5981 10.9908 17.5981 19.6699 17.5981 28.3927C17.904 28.325 18.1652 28.2438 18.4322 28.2141C18.7335 28.1806 18.808 28.0378 18.8078 27.7487C18.8009 19.444 18.801 11.1393 18.8088 2.83462C18.8091 2.54956 18.7261 2.41374 18.3805 2.40115Z" fill="white"/>
<path d="M139.671 20.1498C139.451 22.7134 138.589 24.9445 136.634 26.6533C135.32 27.8023 133.76 28.4419 132.059 28.7635C129.276 29.2899 126.628 28.8923 124.208 27.4245C121.914 26.0335 120.651 23.8893 120.251 21.2708C119.792 18.2717 120.468 15.525 122.471 13.2098C124.015 11.4239 126.025 10.4262 128.382 10.1625C130.496 9.92604 132.357 10.4998 133.95 11.9186C133.983 11.9479 134.027 11.9647 134.136 12.0287C134.136 11.8282 134.136 11.6872 134.136 11.5463C134.136 8.81521 134.143 6.08411 134.129 3.35312C134.127 2.9877 134.208 2.85865 134.599 2.86444C136.151 2.8874 137.703 2.88301 139.254 2.86784C139.599 2.86447 139.727 2.94578 139.726 3.32017C139.715 8.50917 139.721 13.6982 139.718 18.8872C139.718 19.2964 139.689 19.7056 139.671 20.1498ZM133.973 17.9574C133.478 16.4782 132.456 15.5984 130.922 15.3579C130.412 15.2781 129.883 15.3117 129.362 15.315C127.707 15.3253 126.207 16.4397 125.857 18.0568C125.687 18.8416 125.673 19.6883 125.747 20.4923C125.91 22.2595 127.262 23.5731 129.023 23.7667C129.514 23.8207 130.014 23.8007 130.51 23.7912C132.213 23.7586 133.71 22.5365 134.032 20.86C134.213 19.9187 134.208 18.9608 133.973 17.9574Z" fill="white"/>
<path d="M106.347 21.4687C106.889 22.718 107.889 23.332 109.198 23.4981C111.662 23.8108 114.099 23.5982 116.518 23.0912C116.635 23.0667 116.757 23.0627 116.907 23.0456C116.917 23.19 116.931 23.2975 116.931 23.4051C116.934 24.8699 116.932 26.3347 116.938 27.7995C116.939 28.015 116.924 28.1659 116.659 28.2339C113.814 28.9659 110.94 29.241 108.032 28.7044C105.871 28.3054 103.935 27.4383 102.471 25.721C101.277 24.321 100.698 22.6603 100.493 20.8636C100.224 18.509 100.632 16.2836 101.933 14.2707C103.167 12.3604 104.934 11.1533 107.107 10.561C110.139 9.73424 113.059 10.0585 115.81 11.6018C118.475 13.097 119.195 16.9132 117.306 19.3551C116.185 20.8044 114.627 21.488 112.903 21.8508C110.716 22.3108 108.56 22.1426 106.416 21.4C106.372 21.4148 106.359 21.4418 106.347 21.4687ZM110.032 15.5113C108.596 15.5756 107.345 15.9961 106.522 17.3137C106.598 17.3501 106.639 17.378 106.684 17.3903C107.861 17.7119 109.064 17.9063 110.28 17.8623C110.922 17.8392 111.566 17.6499 112.191 17.472C112.528 17.3761 112.803 17.113 112.808 16.7126C112.813 16.3199 112.594 16.0321 112.269 15.8378C112.102 15.7381 111.912 15.6395 111.724 15.6188C111.185 15.5595 110.642 15.5404 110.032 15.5113Z" fill="white"/>
<path d="M70.1553 21.5264C69.7194 18.6104 70.1394 15.9204 72.0134 13.5859C73.2763 12.0126 74.9348 11.03 76.8689 10.5119C79.6984 9.75397 82.431 10.0076 85.0087 11.4303C87.445 12.775 88.874 14.863 89.3715 17.5921C89.6606 19.178 89.6329 20.76 89.1949 22.3156C88.4204 25.0658 86.6831 26.9999 84.058 28.0806C80.8915 29.3843 77.7255 29.322 74.6655 27.7355C72.1583 26.4357 70.6802 24.3332 70.1553 21.5264ZM76.0628 17.2274C75.4973 18.1776 75.5265 19.2246 75.5934 20.2683C75.7078 22.0531 77.0048 23.4722 78.7747 23.7404C79.237 23.8105 79.7148 23.7908 80.1854 23.7899C82.2719 23.7855 83.9277 22.1769 83.9931 20.0936C84.0048 19.7217 84.0037 19.3487 83.9905 18.9768C83.9312 17.309 82.8283 15.877 81.2105 15.4711C80.6434 15.3288 80.0325 15.3264 79.4412 15.3228C77.9857 15.3141 76.8666 15.9462 76.0628 17.2274Z" fill="white"/>
<path d="M156.417 11.8926C156.417 11.3609 156.417 10.8665 156.417 10.3391C158.273 10.3391 160.1 10.3391 161.971 10.3391C161.979 10.4647 161.996 10.5949 161.996 10.7252C161.998 13.5059 162.004 16.2867 161.997 19.0675C161.992 20.9684 161.665 22.8016 160.726 24.4819C159.444 26.7767 157.426 28.0666 154.914 28.6374C152.887 29.098 150.86 29.0903 148.904 28.3266C145.83 27.1263 143.971 24.8654 143.341 21.6322C143.185 20.8354 143.166 20.0044 143.157 19.1882C143.125 16.3581 143.13 13.5277 143.108 10.6974C143.106 10.3924 143.187 10.2954 143.502 10.2985C145.103 10.3139 146.705 10.3053 148.306 10.3063C148.416 10.3063 148.526 10.3155 148.686 10.3226C148.686 10.4871 148.686 10.6322 148.686 10.7773C148.686 13.4091 148.669 16.041 148.695 18.6725C148.702 19.4494 148.755 20.2412 148.917 20.9983C149.316 22.8645 150.961 23.9843 152.701 23.8446C154.791 23.6768 156.303 22.2516 156.354 20.3081C156.427 17.5167 156.401 14.7227 156.417 11.8926Z" fill="white"/>
<path d="M46.1984 13.5806C47.3762 16.6339 48.5435 19.6605 49.7109 22.687C49.7428 22.6855 49.7747 22.6839 49.8065 22.6824C49.8595 22.5645 49.9181 22.4487 49.9646 22.3282C51.4616 18.4493 52.9606 14.571 54.4474 10.6882C54.5563 10.4036 54.6853 10.293 55.0038 10.2969C56.5558 10.3161 58.1081 10.3056 59.6603 10.3056C59.7939 10.3056 59.9276 10.3056 60.121 10.3056C60.0597 10.4724 60.0223 10.5855 59.9772 10.6955C57.5465 16.6228 55.1134 22.5491 52.6901 28.4794C52.5832 28.741 52.4498 28.8258 52.1716 28.8235C50.5574 28.8103 48.943 28.81 47.3288 28.8239C47.0569 28.8263 46.9399 28.7292 46.8414 28.4883C44.4128 22.5495 41.9767 16.6138 39.5428 10.6771C39.5016 10.5765 39.472 10.4711 39.4238 10.329C39.5677 10.3196 39.6742 10.3066 39.7808 10.3065C41.3826 10.3051 42.9846 10.3122 44.5863 10.2989C44.8553 10.2966 44.9763 10.3834 45.0682 10.6331C45.4286 11.6114 45.8127 12.581 46.1984 13.5806Z" fill="white"/>
<path d="M97.5773 15.4692C97.5773 19.9236 97.5773 24.3408 97.5773 28.7905C95.7273 28.7905 93.9114 28.7905 92.0688 28.7905C92.0688 20.1662 92.0688 11.5452 92.0688 2.89742C92.193 2.88929 92.3006 2.87622 92.4083 2.87611C93.9973 2.87452 95.5866 2.88482 97.1754 2.86625C97.5152 2.86228 97.5854 2.97208 97.5846 3.29039C97.5742 7.33755 97.5775 11.3847 97.5773 15.4692Z" fill="white"/>
<path d="M64.5108 10.298C65.4017 10.298 66.2554 10.298 67.1558 10.298C67.1558 10.4724 67.1558 10.6044 67.1558 10.7364C67.156 16.6208 67.1533 22.5052 67.1637 28.3896C67.1643 28.7299 67.0786 28.8348 66.7307 28.8308C65.1542 28.8131 63.5774 28.8156 62.0009 28.83C61.6907 28.8328 61.6021 28.7406 61.6025 28.4312C61.6108 22.5096 61.6085 16.588 61.6094 10.6663C61.6094 10.5578 61.6212 10.4494 61.6299 10.298C62.593 10.298 63.5332 10.298 64.5108 10.298Z" fill="white"/>
<path d="M61.2335 4.59824C61.7357 2.91467 63.1868 1.9299 64.7877 2.16153C66.4345 2.39981 67.6022 3.71681 67.6128 5.34787C67.6249 7.22113 66.0094 8.72974 64.1448 8.58641C62.2437 8.44027 60.8864 6.72387 61.1893 4.8489C61.2012 4.77538 61.2134 4.70192 61.2335 4.59824Z" fill="white"/>
<path d="M106.358 21.4572C106.359 21.4413 106.371 21.4147 106.388 21.406C106.392 21.4238 106.37 21.4465 106.358 21.4572Z" fill="white"/>
<path d="M5.73982 14.2949C6.31578 13.5999 6.80123 12.8941 6.91745 11.9879C7.06218 10.8593 6.8066 9.84348 6.10398 8.95398C5.86748 8.65458 5.85586 8.45571 6.15134 8.18159C6.52934 7.83091 6.85134 7.41986 7.21386 7.0166C8.97582 9.05319 9.52411 11.1919 8.56914 13.6472C8.24065 14.4918 7.65419 15.1401 7.12238 15.8372C5.89138 17.4508 5.88254 19.2947 7.108 20.9114C7.28098 21.1396 7.30411 21.3047 7.08416 21.5082C6.67746 21.8844 6.28554 22.2767 5.86665 22.6824C5.13268 21.8712 4.54609 20.9625 4.28721 19.8806C3.78425 17.7787 4.35432 15.9408 5.73982 14.2949Z" fill="white"/>
<path d="M26.5483 17.6729C26.8275 19.6431 26.1204 21.2429 24.8325 22.7157C24.3673 22.2486 23.918 21.8114 23.4936 21.3513C23.4476 21.3014 23.5282 21.1104 23.58 20.9988C23.8494 20.4185 24.2351 19.8686 24.3829 19.2602C24.7272 17.8423 24.2601 16.5952 23.3205 15.5166C22.1122 14.1297 21.5423 12.5246 21.7029 10.6912C21.8241 9.30772 22.4798 8.15676 23.4195 7.07837C23.8752 7.53191 24.3246 7.95295 24.7317 8.41162C24.7954 8.48341 24.6922 8.73844 24.6217 8.8878C24.3855 9.38868 24.0407 9.85595 23.8978 10.3798C23.5298 11.729 23.8522 12.9768 24.7567 14.0267C25.6696 15.0862 26.3142 16.2549 26.5483 17.6729Z" fill="white"/>
</svg>
